<?xml version="1.0" standalone="no"?>
<!DOCTYPE svg PUBLIC "-//W3C//DTD SVG 20010904//EN"
 "http://www.w3.org/TR/2001/REC-SVG-20010904/DTD/svg10.dtd">
<svg version="1.0" xmlns="http://www.w3.org/2000/svg"
 width="3464.000000pt" height="3464.000000pt" viewBox="0 0 3464.000000 3464.000000"
 preserveAspectRatio="xMidYMid meet">

<g transform="translate(0.000000,3464.000000) scale(0.100000,-0.100000)"
fill="#000000" stroke="none">
<path d="M14406 20710 c-332 -38 -620 -122 -900 -262 -259 -130 -444 -260
-644 -453 -446 -430 -716 -970 -787 -1573 -18 -148 -20 -445 -5 -588 84 -794
541 -1517 1223 -1938 420 -259 873 -388 1367 -387 704 0 1336 260 1836 756
222 220 368 423 504 699 449 912 329 1992 -309 2786 -410 510 -991 841 -1661
945 -123 19 -505 28 -624 15z"/>
<path d="M20520 20709 c-163 -17 -402 -70 -569 -125 -805 -265 -1449 -925
-1695 -1737 -37 -122 -77 -308 -97 -457 -22 -156 -17 -515 10 -690 61 -404
197 -756 423 -1095 107 -159 178 -246 323 -391 311 -314 686 -540 1099 -664
720 -216 1495 -121 2130 263 709 428 1171 1146 1267 1972 18 155 16 472 -5
625 -80 602 -344 1131 -773 1551 -411 403 -888 640 -1480 734 -118 19 -510 28
-633 14z"/>
<path d="M27402 16145 c2 -674 7 -1227 10 -1230 2 -3 554 -4 1226 -3 l1221 3
-1222 1228 c-672 675 -1226 1228 -1231 1228 -5 -1 -7 -517 -4 -1226z"/>
</g>
</svg>
